<svg height='300px' width='300px'  fill="#000000" xmlns:dc="http://purl.org/dc/elements/1.1/" xmlns:cc="http://creativecommons.org/ns#" xmlns:rdf="http://www.w3.org/1999/02/22-rdf-syntax-ns#" xmlns:svg="http://www.w3.org/2000/svg" xmlns="http://www.w3.org/2000/svg" xmlns:sodipodi="http://sodipodi.sourceforge.net/DTD/sodipodi-0.dtd" xmlns:inkscape="http://www.inkscape.org/namespaces/inkscape" version="1.1" xml:space="preserve" x="0px" y="0px" viewBox="0 0 100 100"><defs><clipPath clipPathUnits="userSpaceOnUse" id="a"><path d="M 0,100 100,100 100,0 0,0 0,100 z"></path></clipPath></defs><g transform="matrix(1.25,0,0,-1.25,0,100)"><g><g clip-path="url(#a)"><path style="" d="m 31.979113,63.224342 c 0,0 -1.371837,-3.165777 -2.700851,-6.23138 -1.364954,2.480623 -2.733732,4.967363 -2.733732,4.967363 -0.687447,1.247958 -2.256571,1.703708 -3.505294,1.01626 -1.248723,-0.687447 -1.703708,-2.257336 -1.01626,-3.505294 l 5.270941,-9.575326 c 0.474102,-0.86256 1.3986,-1.380248 2.381979,-1.333603 0.983379,0.04665 1.855114,0.648449 2.24663,1.551536 l 5.244942,12.174475 c -0.464388,1.136531 -0.485572,1.711354 -1.793939,2.277218 -1.307604,0.566628 -2.828553,-0.03288 -3.394416,-1.341249 m 13.230498,1.340484 c -1.308368,-0.566628 -1.460312,-1.139921 -1.9247,-2.276453 l 5.375702,-12.176004 c 0.391516,-0.903087 1.262487,-1.504891 2.245866,-1.550772 0.984143,-0.04665 1.908642,0.470279 2.383508,1.332838 l 5.270177,9.575327 c 0.687447,1.248722 0.232462,2.817846 -1.01626,3.505294 -1.249488,0.687447 -2.817847,0.232463 -3.506059,-1.01626 0,0 -1.368778,-2.48674 -2.733732,-4.966599 -1.32825,3.065604 -2.700086,6.23138 -2.700086,6.23138 -0.567393,1.307603 -2.086813,1.907877 -3.394416,1.341249 M 33.003784,52.898864 32.877612,6.9538154 c 0,-1.8772901 1.520949,-3.3967098 3.398239,-3.3967098 1.87729,0 3.397475,1.5194197 3.397475,3.3967098 l 0,26.8746876 c 0,0.314283 0.254638,0.568157 0.566628,0.568157 0.312754,0 0.566628,-0.253874 0.566628,-0.568157 l 0,-26.8746876 c 0,-1.8772901 1.522478,-3.3967098 3.398239,-3.3967098 1.87729,0 3.398239,1.5194197 3.398239,3.3967098 l 0,45.9450486 -4.318149,9.389509 -6.117443,0 m 3.092367,13.268732 c 3.271303,0 5.922449,-2.651911 5.922449,-5.922449 0,-3.270537 -2.651146,-5.922448 -5.922449,-5.922448 -3.270537,0 -5.922448,2.651911 -5.922448,5.922448 0,3.270538 2.651911,5.922449 5.922448,5.922449" fill="#000000" fill-opacity="1" fill-rule="nonzero" stroke="none"></path></g></g></g></svg>